<?xml version="1.0" encoding="UTF-8" standalone="no"?>
<!-- Created with Inkscape (http://www.inkscape.org/) -->

<svg
   xmlns:dc="http://purl.org/dc/elements/1.1/"
   xmlns:cc="http://creativecommons.org/ns#"
   xmlns:rdf="http://www.w3.org/1999/02/22-rdf-syntax-ns#"
   xmlns:svg="http://www.w3.org/2000/svg"
   xmlns="http://www.w3.org/2000/svg"
   xmlns:sodipodi="http://sodipodi.sourceforge.net/DTD/sodipodi-0.dtd"
   xmlns:inkscape="http://www.inkscape.org/namespaces/inkscape"
   width="341"
   height="450"
   viewBox="0,0,341,450"
   id="svg2"
   version="1.1"
   inkscape:version="0.47 r22583"
   sodipodi:docname="thumbup.svg">
  <defs
     id="defs4">
    <inkscape:perspective
       sodipodi:type="inkscape:persp3d"
       inkscape:vp_x="0 : 225 : 1"
       inkscape:vp_y="0 : 1000 : 0"
       inkscape:vp_z="341 : 225 : 1"
       inkscape:persp3d-origin="170.5 : 150 : 1"
       id="perspective2995" />
  </defs>
  <sodipodi:namedview
     id="base"
     pagecolor="#ffffff"
     bordercolor="#666666"
     borderopacity="1.0"
     inkscape:pageopacity="0.0"
     inkscape:pageshadow="2"
     inkscape:zoom="20.48"
     inkscape:cx="165.6793"
     inkscape:cy="217.76308"
     inkscape:document-units="px"
     inkscape:current-layer="layer1"
     showgrid="false"
     inkscape:window-width="1920"
     inkscape:window-height="1127"
     inkscape:window-x="0"
     inkscape:window-y="24"
     inkscape:window-maximized="1"
     fit-margin-top="15"
     fit-margin-left="15"
     fit-margin-right="13"
     fit-margin-bottom="0"
     showborder="true">
    <sodipodi:guide
       position="15,-600.926"
       orientation="0,744.09448"
       id="guide3102" />
    <sodipodi:guide
       position="759.09448,-600.926"
       orientation="-1052.3622,0"
       id="guide3104" />
    <sodipodi:guide
       position="759.09448,451.4362"
       orientation="0,-744.09448"
       id="guide3106" />
    <sodipodi:guide
       position="15,451.4362"
       orientation="1052.3622,0"
       id="guide3108" />
  </sodipodi:namedview>
  <metadata
     id="metadata7">
    <rdf:RDF>
      <cc:Work
         rdf:about="">
        <dc:format>image/svg+xml</dc:format>
        <dc:type
           rdf:resource="http://purl.org/dc/dcmitype/StillImage" />
      </cc:Work>
    </rdf:RDF>
  </metadata>
  <g
     inkscape:label="Ebene 1"
     inkscape:groupmode="layer"
     id="layer1"
     transform="translate(15,-1.43618)">
    <g
       id="g3110"
       transform="translate(-101.64202,-250.41019)">
      <path
         style="fill:#fdfdfd"
         d="m 101.64202,484.34637 0,-217.5 156.5,0 156.5,0 0,217.5 0,217.5 -156.5,0 -156.5,0 0,-217.5 z"
         id="path3126"
         inkscape:connector-curvature="0" />
      <path
         style="fill:#cdcdcd"
         d="m 205.64201,682.2247 c -13.73719,-2.32889 -24.13938,-7.50772 -31.56768,-15.71626 -7.94319,-8.77751 -9.89548,-14.42065 -9.91585,-28.66207 -0.009,-6.325 0.55679,-13.68095 0.52087,-14.98083 -0.82074,-0.83044 -18.66224,-5.71838 -25.34171,-9.47993 -1.75759,-1.00525 -4.17481,-2.70996 -5.37159,-3.78825 -17.94394,-11.40248 -23.33163,-38.09089 -20.91915,-58.6326 1.62638,-7.15065 6.52588,-18.33953 8.58905,-19.61464 1.92109,-2.74119 2.53005,-3.43536 4.65393,-5.62647 1.07671,-0.89359 0.85669,-1.47915 -1.14833,-3.05631 -3.25228,-2.42407 -3.95012,-2.79142 -6.49685,-5.16526 -3.61826,-3.52225 -6.33971,-7.38857 -8.37589,-11.87746 -4.64103,-7.26035 -6.87709,-26.36111 -4.27444,-36.5129 2.01972,-7.87807 5.74119,-15.25625 10.16471,-20.15256 6.27958,-8.42692 15.90075,-13.88961 24.98293,-18.85171 24.71636,-12.21061 52.55356,-12.16675 79.5,-10.01418 1.925,0.39557 7.19251,1.01669 11.70558,1.38027 11.19835,0.90216 13.29442,-0.39186 13.29442,-8.2074 0,-8.64449 -1.62583,-13.62985 -10.63206,-32.60168 -4.61664,-9.72506 -8.83805,-20.02398 -9.38091,-22.88649 -2.75469,-23.47546 3.34695,-49.80831 21.01297,-66.3181 44.34161,-44.80738 86.66152,-6.90234 77.10787,44.3865 -6.3338,30.23106 0.84572,58.34511 17.70051,83.79487 1.55855,1.66844 3.47675,3.9109 4.26267,4.98326 8.28704,10.48976 16.61911,20.16396 23.1405,31.72187 3.02664,4.95 6.63633,12.28133 8.02153,16.29184 2.17075,6.28485 3.34477,8.03952 8.50145,12.70604 6.41306,5.80349 12.96611,15.70965 17.00222,25.70207 10.0194,24.80553 7.79513,64.20252 -4.89126,86.63567 -8.01244,13.42399 -18.94602,26.37905 -33.558,32.48988 -6.71695,3.36332 -16.75261,6.6745 -20.22934,6.6745 -5.01916,0.46123 -6.64693,6.2736 -10.33466,9 -2.11158,2.36039 -1.79905,2.14832 -3.91298,4.28708 -10.17146,10.25865 -28.91311,17.57088 -45.73201,17.84278 -5.92712,0.0958 -9.66025,0.67823 -12.0785,1.88439 -10.06675,5.02105 -23.9337,9.29069 -36.84889,11.34579 -7.77784,1.23764 -24.42683,1.81921 -29.15111,1.01829 z m 18.40888,-17.47363 c 13.069,-2.29314 23.61308,-7.56189 33.63712,-15.4245 9.0984,-9.79298 9.17945,-28.20132 -0.39476,-35.80501 -8.56798,-6.80455 -15.83527,-8.53172 -21.89559,-5.20377 -3.55912,1.95444 -12.05169,5.57899 -21.25564,9.0717 -5.81784,2.20775 -22.46731,5.3884 -29.17171,5.57285 -3.39497,0.0934 -6.70334,0.49779 -7.35194,0.89865 -1.96425,1.21397 -4.0068,12.00991 -3.30817,17.48538 1.96831,16.50985 13.55233,21.85134 28.83182,24.44803 7.49969,0.75307 13.07938,0.47465 20.90887,-1.04333 z m 102.14436,-41.93132 c 5.79296,-2.89647 9.90493,-5.91364 14.65071,-10.75 6.78078,-6.91018 15.79606,-20.29238 15.79606,-23.44752 0,-0.97672 0.45,-1.77586 1,-1.77586 1.32304,0 1.24692,1.348 -0.48,8.5 -0.79682,3.3 -1.46479,6.26589 -1.48438,6.59087 -0.0741,1.22969 11.2128,3.04296 14.9798,2.40652 4.0494,-0.68414 14.31285,-6.79383 17.00123,-10.1206 5.91778,-7.32303 8.03937,-11.4046 9.45627,-18.19217 3.28116,-15.71818 0.91323,-37.31091 -5.59644,-51.03295 -2.76612,-5.83083 -8.81803,-15.15167 -9.83779,-15.15167 -0.42176,0 -1.03218,1.93583 -1.35647,4.30184 -0.88698,6.4712 -5.42804,20.15812 -9.81854,29.5934 -3.87495,8.32736 -5.72201,10.19327 -4.17069,4.21323 1.99986,-7.70904 -1.35151,-37.27614 -5.90415,-52.08878 -3.89932,-12.68698 -9.81529,-21.86105 -31.24346,-48.45021 -8.36349,-10.37784 -12.71751,-17.8616 -17.49428,-30.06948 -10.21337,-26.10208 -10.78234,-53.59536 -1.67084,-80.73803 16.67769,-38.37049 0.80459,-68.6018 -39.66583,-54.4405 -7.31308,4.28575 -19.86368,16.89855 -24.45027,24.57145 -6.16512,10.3136 -8.45522,17.83944 -9.00937,29.60708 -0.58298,12.37953 0.82401,17.05053 10.16316,33.74039 9.62015,17.19201 11.43436,21.33117 13.22682,30.1773 1.70972,8.43785 1.33756,22.87829 -0.68713,26.66146 -2.84885,5.32313 -11.55053,6.29833 -33.95764,3.80564 -37.55658,-3.70567 -95.70033,-2.47103 -109.96768,40.9764 -2.72017,11.34764 0.47277,24.94981 7.82131,33.31933 9.99527,11.38398 47.53123,15.92781 73.14637,8.85455 15.23596,-4.20719 26.70677,-12.49459 31.59443,-22.82625 3.5836,-7.57511 4.53196,-20.97088 1.9612,-27.70232 -2.96486,-7.4098 -9.10228,-12.78652 -15.50251,-17.33552 -4.97745,-3.18403 -6.14418,-3.50431 -12.76563,-3.50431 -4.00812,0 -7.28749,-0.28497 -7.28749,-0.63326 0,-1.31487 11.98239,-3.03341 21.15023,-3.03341 16.87537,0 32.38747,5.54202 41.9232,14.97792 4.42104,4.14215 7.29355,8.73923 8.9636,14.52208 1.64894,4.44684 2.30582,8.70554 2.53759,16.45172 0.49056,16.3954 4.0428,34.79457 8.69726,45.04828 8.03175,17.69386 24.56884,34.42785 42.05066,42.55135 2.6524,1.23252 4.35136,2.53216 3.77546,2.88808 -0.5759,0.35593 -4.15626,0.74016 -7.95635,0.85385 l -6.90926,0.20672 2.91858,3.5 c 4.00542,3.84171 5.66308,8.55284 7.44851,13.69593 2.2738,6.83926 2.55261,9.07624 2.1875,15.80407 -0.28156,5.18836 -1.17929,9.66941 -2.55433,12.75 -1.1661,2.6125 -1.80799,4.75 -1.42642,4.75 0.38157,0 4.31772,-1.81198 8.747,-4.02662 z M 182.67746,598.81291 c 25.99919,-4.61147 41.52567,-18.09055 41.42965,-35.96654 -0.0192,-3.575 -0.63602,-8.24632 -1.37069,-10.38071 -1.66302,-4.8314 -7.13968,-10.99157 -12.51076,-14.07212 l -4.08364,-2.34215 -14.98646,1.53863 c -13.53185,1.38928 -16.06281,1.38734 -26.07576,-0.0201 -6.09911,-0.85728 -14.31473,-2.64046 -18.25693,-3.96263 l -7.16763,-2.40394 -2.01576,2.14568 c -6.53634,7.75817 -11.6405,15.44846 -13.89777,25.43023 -1.09561,6.93077 0.26737,17.01791 3.12933,23.15952 2.69732,5.51284 8.33143,12.10024 14.27098,14.63618 12.53328,4.73236 23.99126,5.34971 41.53544,2.23791 l 0,4e-5 z"
         id="path3124"
         inkscape:connector-curvature="0"
         sodipodi:nodetypes="csscccccccccscccsssccccccssscccccssscccsssssccccssssssssssssssssccsssssccsssccsssccssssccccsssccsscccscccccccc" />
      <path
         style="fill:#b4b4b4"
         d="m 205.64202,682.25785 c -19.21902,-3.51309 -30.85989,-11.28228 -37.73412,-25.18398 -3.6682,-7.41819 -3.76588,-7.90249 -3.76588,-18.67161 0,-6.08074 0.38628,-12.29339 0.85841,-13.80589 0.78248,-2.50678 0.63227,-2.75 -1.69838,-2.75 -4.73797,0 -18.27214,-4.94927 -24.23844,-8.86367 -28.24825,-18.53328 -35.71072,-59.73679 -15.26682,-84.29466 l 3.87796,-4.65832 -3.59695,-2.22304 c -7.02778,-4.34341 -15.12154,-16.74738 -17.2657,-26.46031 -4.6749,-21.17708 -0.51279,-36.47333 13.74107,-50.5 12.82871,-12.62423 30.26693,-20.6992 52.8396,-24.46798 11.6801,-1.95014 31.66226,-1.76145 53.88277,0.5088 12.08757,1.23497 13.3419,1.2053 15.75,-0.37254 2.32131,-1.52098 2.61648,-2.36495 2.61648,-7.48123 0,-8.4852 -2.26268,-15.80759 -9.43247,-30.52502 -11.44359,-23.49025 -12.6876,-28.76036 -10.67723,-45.23297 3.34139,-27.37879 19.65655,-50.73134 43.52707,-62.30207 28.50207,-13.81577 48.0144,-6.95103 55.09308,19.38261 2.38956,8.8895 2.16279,27.3775 -0.49666,40.4904 -1.49796,7.38596 -2.14385,14.35548 -2.17785,23.5 -0.0686,18.45493 2.78226,30.93101 10.65049,46.60898 4.31204,8.59203 6.26058,11.53267 12.51768,18.89102 15.92933,18.73291 28.12738,37.31231 32.26488,49.14409 1.84662,5.28069 3.5176,7.80248 8.27379,12.4865 15.87587,15.63497 23.44627,35.97353 23.45403,63.01135 0.009,33.08797 -13.0434,60.7707 -36.0076,76.36539 -8.41822,5.7167 -23.71796,11.962 -29.36095,11.98503 -1.05193,0.004 -5.4837,3.84008 -10.11835,8.75764 -13.7462,14.5853 -27.62661,20.99279 -47.50991,21.93157 -8.27069,0.3905 -11.56923,1.00111 -15.53605,2.87597 -15.34779,7.25389 -32.15817,11.21386 -50.46395,11.88764 -6.325,0.23281 -12.625,0.21764 -14,-0.0337 z m 17.52132,-16.40721 c 32.06216,-6.62262 47.78903,-23.91316 40.48659,-43.29432 -1.19987,-3.18452 -3.38,-6.92878 -4.84474,-8.32057 -4.20757,-4.63471 -8.56283,-6.50189 -15.87062,-8.24554 -3.28045,-0.71514 -3.85656,0.12176 -10.25,3.32665 -16.21443,8.12793 -36.23054,13.52951 -50.135,13.52951 l -5.83046,0 -1.20462,4.25 c -2.0378,7.18951 -1.56122,17.5125 1.08692,23.5435 8.71956,17.61283 29.68433,17.03679 46.56193,15.21077 z m 59.47868,-25.50427 c 0.68469,-0.825 1.01989,-1.5 0.74489,-1.5 -0.275,0 -1.0602,0.675 -1.74489,1.5 -0.68469,0.825 -1.01989,1.5 -0.74489,1.5 0.275,0 1.0602,-0.675 1.74489,-1.5 z m 42,-2 c 1.62406,-2.95733 -1.39606,0.55232 -1.74489,1.5 0.275,0 1.0602,-0.675 1.74489,-1.5 z m -37.95056,-4.59691 c 1.14954,-2.25329 1.91856,-4.26842 1.70893,-4.47806 -0.20964,-0.20963 -1.36018,1.63398 -2.55677,4.09691 -2.72529,5.60948 -1.98845,5.94073 0.84784,0.38115 z m 43.95056,-0.40309 c 1.86578,-1.925 3.16733,-3.5 2.89233,-3.5 -2.59954,1.91456 -4.97771,4.37567 -6.78466,7 0.275,0 2.02655,-1.575 3.89233,-3.5 z m 6,-6 c 0.68469,-0.825 1.01989,-1.5 0.74489,-1.5 -0.275,0 -1.0602,0.675 -1.74489,1.5 -0.68469,0.825 -1.01989,1.5 -0.74489,1.5 0.275,0 1.0602,-0.675 1.74489,-1.5 z m -11.56905,-2.66074 c 8.81866,-4.64727 16.76737,-11.07775 23.43453,-20.84162 4.11676,-5.70463 4.85618,-6.90001 7.52928,-11.99764 l 1.70519,-3.5 -0.52338,4 c -0.28787,2.2 -0.80471,5.40302 -1.14854,7.11782 -0.56915,2.83852 -0.33422,3.21923 2.62263,4.25 5.6322,1.96339 13.50071,1.40183 18.73258,-1.33691 8.87548,-4.64606 16.111,-13.10208 18.8739,-22.05757 2.83013,-9.17342 2.58637,-33.19094 -0.44427,-43.77252 -2.51477,-8.78045 -6.45914,-17.05377 -11.28666,-23.67382 l -3.26184,-4.473 -1.29991,6.37268 c -0.71496,3.50498 -2.49621,9.96483 -3.95834,14.35521 -4.44648,13.35156 -12.73615,29.91481 -9.335,18.65188 1.91709,-6.34844 -0.74533,-33.51173 -4.69824,-47.93377 -4.48288,-16.35563 -9.11297,-23.90077 -31.29262,-50.99415 -8.54415,-10.43704 -12.12916,-16.27577 -17.16399,-27.95417 -8.95775,-20.7777 -12.05645,-44.54864 -8.3525,-64.07429 5.9209,-27.23209 24.07745,-58.40483 -1.81946,-80.60961 -3.67647,-1.90118 -14.07423,-2.06385 -19.50273,-0.30513 -16.10572,5.21792 -33.09056,20.00678 -40.69941,35.43735 -4.69467,9.52067 -6.54217,17.30177 -6.54217,27.55355 0,11.01622 1.95011,16.78904 10.9607,32.44645 8.50373,14.77665 10.35951,19.05767 12.57174,29.00119 1.83077,8.22898 1.60507,20.37674 -0.48052,25.86224 -2.19588,5.77562 -12.94525,6.99514 -36.55192,4.14684 -28.09253,-3.38956 -52.99305,-1.18468 -71.8376,6.36105 -15.74515,6.30466 -28.23146,16.70517 -33.46651,27.87604 -2.39144,5.10298 -2.69589,6.93843 -2.69589,16.25264 0,9.48121 0.27227,11.05446 2.80615,16.21444 5.05223,10.28835 11.52543,14.41307 29.69385,18.92093 7.88939,1.95747 35.2649,1.68203 45,-0.45278 15.70678,-3.44433 30.84873,-13.4906 35.79896,-23.75162 3.29575,-6.83155 4.49495,-18.38238 2.64559,-25.48255 -0.81763,-3.13909 -1.77193,-6.21166 -2.12066,-6.82793 -2.19642,-3.88147 -7.85933,-9.67037 -12.74636,-13.02993 -5.20923,-3.58107 -6.32271,-3.93448 -13.25631,-4.20742 -4.16316,-0.16389 -7.7407,-0.46929 -7.95009,-0.67867 -1.08004,-1.08004 17.40158,-2.90543 25.18799,-2.48777 16.86452,0.90463 34.01018,8.86573 41.02895,19.05064 5.71536,8.29355 7.58253,14.83027 7.92164,27.73266 0.85017,32.34748 10.16305,55.55065 28.99029,72.22976 6.04066,5.35143 17.0157,12.91278 21.34581,14.70637 1.7348,0.71858 3.15419,1.70192 3.15419,2.18519 0,0.81806 -7.27689,1.33279 -13,0.91955 l -2.5,-0.18051 2.16064,1.56393 c 3.1982,2.31496 8.91626,13.15621 10.85235,20.57571 1.14102,4.37265 1.02234,8.35883 0.63091,12.17954 -0.65729,14.0797 -11.89554,22.87037 4.28705,14.65972 z m 15.56905,-2.83926 c 3.75364,-7.21867 -6.33588,8.57203 0,0 z m -49.79444,-0.94719 c 0.2379,-1.62095 0.064,-2.71939 -0.3865,-2.44098 -0.80176,0.49551 -1.19454,5.38817 -0.43256,5.38817 0.21258,0 0.58115,-1.32623 0.81906,-2.94719 z m 65.98194,2.26408 c -0.72188,-0.28887 -1.58438,-0.25335 -1.91667,0.0789 -0.33229,0.33229 0.25834,0.56864 1.3125,0.52522 1.16495,-0.048 1.4019,-0.28494 0.60417,-0.60416 l 0,4e-5 z m 9.30542,-3.30544 c 0.35034,-0.56686 -0.0511,-0.7345 -0.94098,-0.39301 -1.73242,0.66479 -2.04939,1.38156 -0.61096,1.38156 0.51754,0 1.21592,-0.44485 1.55194,-0.98855 z M 310.24623,608.1172 c -0.14393,1.66986 0.1085,1.81841 0,0 z m -131.37212,-1.99556 c -1.79735,-0.22256 -4.49735,-0.21797 -6,0.0102 -1.50265,0.22818 -0.0321,0.41027 3.26791,0.40466 3.3,-0.006 4.52944,-0.1923 2.73209,-0.41486 z m -15.23209,-0.43316 c 4.05548,-0.82059 -4.65081,-0.36863 0,0 z m 125,-2.65098 c 0,-0.44488 -0.68231,-1.68238 -1.51625,-2.75 -1.406,-1.79999 -1.43069,-1.74117 -0.33949,0.80887 1.17741,2.75149 1.85574,3.46104 1.85574,1.94113 z m -35,-5.91437 c 0,-0.75941 -3.75054,1.72001 -5.08224,3.35979 -0.87731,1.08027 -0.17886,0.83879 1.83224,-0.63346 1.7875,-1.30856 3.25,-2.53541 3.25,-2.72633 z m -69.30408,1.63955 c 24.42522,-4.71358 38.70681,-16.60648 40.051,-33.3522 0.93494,-11.64745 -1.95309,-18.37748 -12.24758,-27.0739 l -5.44434,-2.61884 -8.82866,1.18993 c -19.78458,2.42048 -37.90871,1.1083 -52.43695,-3.7964 l -5.70544,-1.92615 -3.92703,4.08063 c -9.81301,10.1968 -14.00347,22.56075 -12.12809,35.78388 1.73064,12.20264 10.02281,22.48763 18.14978,26.52992 2.93533,1.02116 4.77313,1.55005 7.82139,2.19859 6.40018,2.13054 23.441,1.15651 34.69592,-1.01546 z m 121.30408,-3.9163 c -0.5887,-1.1 -1.29537,-2 -1.57037,-2 -0.275,0 -0.0183,0.9 0.57037,2 0.5887,1.1 1.29537,2 1.57037,2 0.275,0 0.0183,-0.9 -0.57037,-2 z m -24.49668,-2.99462 c -0.33809,-0.54704 -1.60214,-1.47725 -2.80901,-2.06712 -1.89041,-0.92396 -1.84808,-0.78929 0.30569,0.97239 2.79973,2.29004 3.4059,2.55513 2.50332,1.09473 z m -20.0146,-2.6285 c 0.9453,-1.44272 1.22448,-2.31766 0.62038,-1.94431 -1.15439,0.71346 -3.48267,4.56743 -2.75929,4.56743 0.23109,0 1.1936,-1.18041 2.13891,-2.62312 z m 11.51128,-2.8417 c 0,-0.25565 -1.0125,-0.95547 -2.25,-1.55516 -2.16063,-1.04704 -2.17289,-1.02858 -0.30887,0.46481 2.04026,1.63459 2.55887,1.85557 2.55887,1.09035 z m -6.56929,-3.4378 c -0.26308,-0.26308 -1.25511,0.33267 -2.20452,1.3239 -1.64929,1.72194 -1.62798,1.74325 0.47833,0.47833 1.21249,-0.72815 1.98927,-1.53915 1.72619,-1.80223 z m 30.56929,1.55761 c 0,-0.18976 -1.0125,-1.20226 -2.25,-2.25 l -2.25,-1.90499 1.90499,2.25 c 1.79022,2.11444 2.59501,2.70524 2.59501,1.90499 z m -5,-4.11981 c 0,-0.25565 -1.0125,-0.95547 -2.25,-1.55516 -2.16063,-1.04704 -2.17289,-1.02858 -0.30887,0.46481 2.04026,1.63459 2.55887,1.85557 2.55887,1.09035 z m -6,-3.53518 c -0.825,-0.53316 -1.95,-0.96937 -2.5,-0.96937 -0.55,0 -0.325,0.43621 0.5,0.96937 0.825,0.53316 1.95,0.96937 2.5,0.96937 0.55,0 0.325,-0.43621 -0.5,-0.96937 z m 15.5,-2 c -1.1,-0.47269 -2.675,-0.85943 -3.5,-0.85943 -0.94548,0 -0.76064,0.31771 0.5,0.85943 1.1,0.47269 2.675,0.85943 3.5,0.85943 0.94548,0 0.76064,-0.31771 -0.5,-0.85943 z m -22.3125,-0.68311 c -0.72188,-0.28887 -1.58438,-0.25335 -1.91667,0.0789 -0.33229,0.33229 0.25834,0.56864 1.3125,0.52522 1.16495,-0.048 1.4019,-0.28494 0.60417,-0.60416 l 0,4e-5 z m -4,-1 c -0.72188,-0.28887 -1.58438,-0.25335 -1.91667,0.0789 -0.33229,0.33229 0.25834,0.56864 1.3125,0.52522 1.16495,-0.048 1.4019,-0.28494 0.60417,-0.60416 l 0,4e-5 z m 19.8125,-0.31689 c -0.825,-0.53316 -1.95,-0.96937 -2.5,-0.96937 -0.55,0 -0.325,0.43621 0.5,0.96937 0.825,0.53316 1.95,0.96937 2.5,0.96937 0.55,0 0.325,-0.43621 -0.5,-0.96937 z m 16,0.60699 c 0,-0.21616 -0.69837,-0.661 -1.55194,-0.98855 -0.88992,-0.34149 -1.29132,-0.17385 -0.94098,0.39301 0.58726,0.95021 2.49292,1.40545 2.49292,0.59554 z m -22,-3 c 0,-0.21616 -0.69837,-0.661 -1.55194,-0.98855 -0.88992,-0.34149 -1.29132,-0.17385 -0.94098,0.39301 0.58726,0.95021 2.49292,1.40545 2.49292,0.59554 z m -17.39583,-4.33616 c -0.3323,-0.33229 -0.56864,0.25834 -0.52522,1.3125 0.048,1.16495 0.28494,1.4019 0.60416,0.60417 0.28887,-0.72188 0.25335,-1.58438 -0.0789,-1.91667 l -4e-5,0 z m 11.39583,1.34418 c 0,-0.21174 -1.2375,-1.13845 -2.75,-2.05935 l -2.75,-1.67436 2.36078,2.05935 c 2.30373,2.00958 3.13922,2.4552 3.13922,1.67436 z m 7.5,-7.61501 c -1.5808,-1.65 -3.09918,-3 -3.37418,-3 -0.275,0 0.79338,1.35 2.37418,3 1.5808,1.65 3.09918,3 3.37418,3 0.275,0 -0.79338,-1.35 -2.37418,-3 z m -8.12005,-7.4058 c -2.13397,-2.42319 -4.31114,-4.4482 -4.83816,-4.50001 -0.52701,-0.0518 1.02918,1.93081 3.45821,4.40581 5.64372,5.75054 6.40707,5.80264 1.37995,0.0942 z m -5.37995,-5.97176 c 0,-0.20765 -0.7875,-0.99515 -1.75,-1.75 -1.58606,-1.24387 -1.62143,-1.2085 -0.37756,0.37756 1.30637,1.66575 2.12756,2.19548 2.12756,1.37244 z m -3,-4 c 0,-0.20765 -0.7875,-0.99515 -1.75,-1.75 -1.58606,-1.24387 -1.62143,-1.2085 -0.37756,0.37756 1.30637,1.66575 2.12756,2.19548 2.12756,1.37244 z m -6.21439,-9.37244 c -2.64476,-4.6195 -2.78652,-4.80636 -2.78187,-3.66667 0.005,1.12248 3.77925,7.41667 4.44784,7.41667 0.26453,0 -0.48516,-1.6875 -1.66597,-3.75 z m 101.90372,-3 c -0.25153,-0.9625 -0.45733,-0.175 -0.45733,1.75 0,1.925 0.2058,2.7125 0.45733,1.75 0.25152,-0.9625 0.25152,-2.5375 0,-3.5 z m -132.19641,-2.23855 c 0.35034,-0.56686 -0.0511,-0.7345 -0.94098,-0.39301 -1.73242,0.66479 -2.04939,1.38156 -0.61096,1.38156 0.51754,0 1.21592,-0.44485 1.55194,-0.98855 z m -68.76195,-5.70444 c -0.97297,-0.25354 -2.32297,-0.23687 -3,0.0371 -0.67703,0.27393 0.11903,0.48137 1.76903,0.46099 1.65,-0.0204 2.20394,-0.2445 1.23097,-0.49804 l 0,-5e-5 z m 22.01903,0.004 c -0.9625,-0.25152 -2.5375,-0.25152 -3.5,0 -0.9625,0.25153 -0.175,0.45733 1.75,0.45733 1.925,0 2.7125,-0.2058 1.75,-0.45733 z m -29.5,-0.97295 c -0.6875,-0.27741 -1.8125,-0.27741 -2.5,0 -0.6875,0.27741 -0.125,0.50439 1.25,0.50439 1.375,0 1.9375,-0.22698 1.25,-0.50439 z m 39,0 c -0.6875,-0.27741 -1.8125,-0.27741 -2.5,0 -0.6875,0.27741 -0.125,0.50439 1.25,0.50439 1.375,0 1.9375,-0.22698 1.25,-0.50439 z m 15.75,-3.33806 c 1.82797,-1.18132 0.24909,-1.18132 -2.5,0 -1.31874,0.56668 -1.48906,0.87815 -0.5,0.9144 0.825,0.0302 2.175,-0.38124 3,-0.9144 z m 12,-4.5 c 1.375,-0.78602 2.05,-1.42913 1.5,-1.42913 -0.55,0 -2.125,0.64311 -3.5,1.42913 -1.375,0.78602 -2.05,1.42913 -1.5,1.42913 0.55,0 2.125,-0.64311 3.5,-1.42913 z m 33.29011,-3.50138 c 0.28785,-1.10076 0.11534,-1.7492 -0.38337,-1.44098 -0.49871,0.30822 -0.90674,1.20884 -0.90674,2.00138 0,2.06975 0.6795,1.77459 1.29011,-0.5604 z m 3.7397,-6.05431 c 1.51959,-2.83938 0.48309,-2.37605 -1.51853,0.67881 -0.9453,1.44272 -1.22448,2.31766 -0.62038,1.94431 0.60409,-0.37335 1.5666,-1.55375 2.13891,-2.62312 z m -21.68949,-0.77764 c 1.93815,-2.023 2.27766,-2.83334 1.18709,-2.83334 -0.84007,0 -1.29829,0.22912 -1.01826,0.50915 0.28003,0.28003 -0.47341,1.55503 -1.67432,2.83333 -1.2009,1.27831 -1.96421,2.32419 -1.69624,2.32419 0.26798,0 1.70876,-1.275 3.20173,-2.83333 z m 6.04124,-7.71861 c 0.34149,-0.88992 0.17385,-1.29132 -0.39301,-0.94098 -0.5437,0.33602 -0.98855,1.0344 -0.98855,1.55194 0,1.43843 0.71677,1.12146 1.38156,-0.61096 z m 3.33602,-16.18432 c -0.22985,-1.52006 -0.42406,-0.51375 -0.43157,2.23625 -0.007,2.75 0.18056,3.99369 0.41792,2.76375 0.23736,-1.22994 0.24351,-3.47994 0.0136,-5 l 5e-5,0 z m -6.71758,-19.64131 c 0,-0.20765 -0.7875,-0.99515 -1.75,-1.75 -1.58606,-1.24387 -1.62143,-1.2085 -0.37756,0.37756 1.30637,1.66575 2.12756,2.19548 2.12756,1.37244 z"
         id="path3122"
         inkscape:connector-curvature="0"
         sodipodi:nodetypes="cssssscccsssssssssssssssscssssssccsccsccccccssscccccssccccccsssccccccssssscccsssssccssssssssssssssssssssssssscccscccccssccsscccssccccssccccssccssccsccccccsccccsssccssccssccssccsscccccccssccsssccsssccsscccsscccsssccssccssccssccccccccsssccssccssccssccssccssccssccsscccssccssccssccssccsssccssccssccssssccssccsscccssc" />
      <path
         style="fill:#aaaaaa"
         d="m 201.14202,681.14506 c -15.46033,-3.03467 -27.09013,-11.48671 -33.23318,-24.15244 -3.54726,-7.31374 -3.7098,-8.10287 -3.73768,-18.14625 -0.016,-5.775 0.34411,-11.9625 0.80031,-13.75 0.77288,-3.0283 0.65702,-3.25 -1.69837,-3.25 -4.65887,0 -18.22841,-4.94007 -24.20949,-8.81361 -11.75101,-7.61034 -21.2275,-21.17317 -24.90656,-35.64649 -2.01633,-7.93221 -1.96677,-23.65435 0.0965,-30.6084 2.22855,-7.51112 5.56252,-13.72353 9.85572,-18.36482 l 3.63832,-3.93331 -3.30278,-2.53359 c -8.76265,-6.7219 -15.39916,-16.77792 -17.88458,-27.09978 -2.01921,-8.38569 -1.53237,-23.288 0.99376,-30.41927 8.08667,-22.82873 33.21843,-39.03968 69.08804,-44.56447 9.37954,-1.44467 28.56081,-1.22889 43,0.48374 15.94107,1.89076 21.01437,1.87867 23.77749,-0.0567 1.91008,-1.33787 2.22251,-2.47284 2.22251,-8.07369 0,-8.04162 -3.08389,-17.64628 -9.93272,-30.93509 -9.3549,-18.15135 -10.58765,-22.34346 -10.42003,-35.43452 0.17639,-13.77506 2.51428,-23.79368 8.28412,-35.5 9.84567,-19.97572 29.30137,-35.75094 50.56863,-41.00244 32.40388,-8.00145 48.84755,20.95394 38.90232,68.50244 -3.9206,22.73189 -1.26117,45.50213 8.59306,66.25847 4.07191,8.21746 7.19597,12.67304 21.55463,30.74153 10.89697,13.7124 18.26039,25.1111 22.09517,34.20372 1.84516,4.37505 3.35484,8.49451 3.35484,9.15435 0,0.65984 2.95255,4.11171 6.56122,7.67082 12.31208,12.14299 19.03737,25.38176 21.9185,43.14668 5.84309,36.02835 -4.83545,70.97705 -27.69986,90.65601 -9.99503,8.60253 -28.32363,17.13551 -36.86088,17.16078 -1.75425,0.005 -3.02862,0.84399 -3.97835,2.61857 -2.12516,3.97091 -15.95324,16.54606 -21.51291,19.56369 -9.61033,5.21621 -20.07054,8.02736 -31.92772,8.58047 -8.89868,0.41511 -11.90334,0.96625 -15.7288,2.88512 -10.8581,5.44649 -26.32435,9.66043 -41.7712,11.381 -11.36942,1.2664 -17.17358,1.10815 -26.5,-0.72252 l -3e-5,0 z m 21.32363,-14.77317 c 3.25423,-0.64075 7.33523,-1.41331 16.39622,-4.45595 7.89203,-3.23728 18.05369,-8.74883 21.5364,-14.13707 14.73766,-19.91688 1.36072,-44.46415 -26.07206,-39.37759 -15.88465,7.98665 -32.70001,13.10559 -48.20492,14.12407 l -9.42249,0.61894 -1.20585,3.60104 c -0.66323,1.98057 -1.22975,7.20104 -1.25894,11.60104 -0.0467,7.04292 0.30349,8.65452 2.92746,13.47097 9.89352,16.16613 28.45279,16.8384 45.30418,14.55455 z m 119.30846,-52.08475 c 10.67646,-14.98582 16.40232,-23.93551 14.52172,-16.6856 l -1.34654,5.19102 6.95843,2.46902 c 12.82298,1.1347 16.92767,-1.93352 27.26642,-11.28621 5.14183,-5.62016 6.69387,-9.63888 8.487,-19.77493 1.56415,-8.84163 0.79675,-28.41738 -1.44472,-36.85407 -1.97889,-7.44834 -8.49231,-20.85034 -12.37264,-25.45793 l -2.91213,-3.45794 -0.73634,4.95794 c -1.07567,7.24266 -6.28251,22.93938 -10.1863,30.70793 -1.86557,3.7125 -3.55222,6.75 -3.7481,6.75 -0.19588,0 0.22525,-2.50108 0.93584,-5.55795 1.82553,-6.77463 0.17656,-13.6186 -0.55643,-20.44205 -1.28521,-12.20261 -4.28427,-25.855 -7.63864,-34.77283 -0.84854,-6.5095 -17.19724,-29.52379 -32.04809,-49.0505 -14.59891,-25.72992 -30.22736,-58.91078 -9.7424,-125.42608 0.35848,-18.48587 -2.5437,-28.37413 -7.82013,-34.38366 -4.54528,-5.17679 -8.24913,-6.7368 -15.74904,-6.63331 -14.51757,0.20035 -31.20595,10.19988 -43.96826,26.34542 -8.76114,11.08367 -13.10166,23.60961 -13.11857,37.85777 -0.0138,11.6343 1.58052,16.35882 10.94584,32.43599 11.05778,18.98257 13.61171,26.734 13.55053,41.12718 -0.0536,12.61677 -1.60364,16.7489 -6.94386,18.51133 -4.1441,1.36767 -18.82526,0.94601 -36.46568,-1.04735 -14.97721,-1.69241 -39.1496,-0.76004 -50.38633,1.9435 -24.25352,5.83536 -41.58976,17.1667 -48.85214,31.93081 -3.05581,6.21233 -3.26135,7.2938 -3.25862,17.14612 0.002,8.62176 0.38732,11.34808 2.13733,15.13799 11.95096,21.97681 30.33914,21.65542 52.59127,22.82605 14.68026,-0.30063 19.02157,-1.17958 26.97565,-3.29847 7.28609,-1.94095 12.88835,-5.17447 21.99612,-10.24896 7.27331,-7.82726 11.36428,-8.60035 14.47654,-25.69443 0.20366,-4.14919 -0.36178,-16.58735 -4.39553,-22.12559 -8.47645,-8.41415 -13.74002,-13.63276 -27.03429,-15.07773 -3.4375,-0.002 -6.25,-0.27711 -6.25,-0.61181 0,-1.40297 15.40777,-3.10843 24.14674,-2.67276 18.12584,0.90364 34.21075,8.57441 41.79482,19.93165 5.63409,8.43711 7.17513,14.20939 7.5686,28.34965 0.84724,30.44764 8.30435,50.11404 25.64887,67.64291 4.25707,5.29232 7.87549,7.41149 12.80755,11.32817 6.27594,5.12553 10.67584,5.70732 13.75608,8.48856 -1.26625,0.12424 -5.82266,1.00346 -10.22266,1.13014 -4.4,0.12668 -6.57101,0.40932 -4.82447,0.62809 4.46424,0.76032 11.11189,14.14137 12.80254,18.13564 3.23176,9.87836 -1.64124,27.1361 -3.83864,31.34211 -0.34031,5.78237 9.36195,1.55634 26.49266,-11.75483 z m -69.75575,-55.26625 0,0 z m -95.37634,41.20623 c 11.60736,-1.17515 24.06454,-4.85091 30.22856,-8.91959 4.80223,-2.91084 3.70927,-2.08994 8.39509,-6.55266 6.30143,-6.05665 8.66727,-11.22688 9.17852,-20.05842 0.56042,-9.68095 -0.59584,-15.516 -6.51779,-21.97322 -3.61561,-3.90474 -5.11853,-4.72006 -6.69965,-5.74843 -2.11372,-1.20579 -3.69042,-1.18378 -13.26927,-0.13506 -21.38707,2.34153 -38.0263,1.09502 -52.67947,-3.94641 l -5.55858,-1.91243 -4.78889,5.24391 c -12.539,13.73042 -15.34672,32.3522 -7.18637,47.66257 4.24719,7.96856 13.17802,15.17325 19.5155,15.9424 1.3769,0.16711 4.01171,1.1338 7.17482,1.29655 5.29224,0.2723 9.67153,0.36992 22.20716,-0.89921 l 3.7e-4,0 z M 267.4629,496.20199 c -0.95454,7.84532 1.79362,-2.34848 0,0 z"
         id="path3120"
         inkscape:connector-curvature="0"
         sodipodi:nodetypes="cssssssscccssssssssssccsssssssssssscccccccccsccccccsscccsscccccsssssssssssccsccccsssscccscccccccccsccscccsssccccc" />
      <path
         style="fill:#959595"
         d="m 205.02329,681.91247 c -18.68259,-2.97708 -32.64571,-13.13437 -38.58217,-28.0661 -1.71572,-4.31546 -2.19876,-7.6537 -2.24288,-15.5 -0.0309,-5.5 0.31703,-11.4625 0.77323,-13.25 0.78982,-3.09469 0.69425,-3.25064 -2,-3.26338 -4.2579,-0.0201 -18.59047,-5.30393 -24.2657,-8.94571 -11.14398,-7.15107 -20.75628,-21.07255 -24.51224,-35.50101 -1.96731,-7.55738 -1.99708,-22.40903 -0.0598,-29.8466 2.00976,-7.716 5.56811,-14.39609 10.14679,-19.04856 3.67378,-3.73299 3.73175,-3.90036 1.82783,-5.27715 -4.26366,-3.08318 -10.92929,-10.09331 -13.66152,-14.36759 -7.1823,-11.23593 -9.36904,-30.86406 -4.90198,-44 6.02067,-17.70452 22.16809,-31.39454 46.72044,-39.61027 18.79803,-6.29021 37.00369,-7.66545 64.1043,-4.84236 16.90689,1.7612 24.95769,1.55941 26.36375,-0.66082 0.48295,-0.7626 0.88499,-4.23221 0.89341,-7.71023 0.0194,-8.00007 -2.97911,-17.09053 -10.81175,-32.77786 -8.66607,-17.35654 -9.69438,-20.95001 -9.55738,-33.39846 0.19671,-17.87402 5.36289,-33.53991 15.49459,-46.9857 9.85877,-13.08357 21.37077,-21.77706 35.81709,-27.04791 16.04045,-5.85248 27.34689,-4.87841 36.45726,3.14086 11.92913,10.50044 15.72788,31.88066 10.55266,59.39275 -6.0703,32.27043 -0.011,62.26509 17.07002,84.5 2.74635,3.575 8.39037,10.775 12.54228,16 13.12107,16.51232 21.11211,29.75693 24.43536,40.5 0.79804,2.57981 3.63978,6.48533 8.00383,11 12.61929,13.05481 18.8738,25.62942 21.53756,43.30099 5.7467,38.12397 -5.45296,72.16886 -30.1758,91.72888 -10.16858,8.04509 -26.82713,15.47013 -34.70822,15.47013 -1.45321,0 -2.64219,0.37331 -2.64219,0.82959 0,1.70578 -11.64836,13.61925 -17.42845,17.82511 -10.6052,7.71684 -25.78539,12.32072 -40.68072,12.33775 -5.38896,0.006 -7.97369,0.63493 -14,3.40568 -18.16785,8.35316 -46.59316,13.20426 -62.50956,10.66797 l -4e-5,0 z m 34.66907,-15.40519 c 35.69151,-10.04261 72.8038,-45.66951 36.04291,-78.72253 -3.16095,-2.1447 -5.66948,-3.00525 -8.21981,-4.50611 -1.97445,-1.0567 -2.51726,-0.74201 -5.53137,3.20668 -5.05892,8.12363 -12.4273,13.54597 -24.51795,20.3145 -16.99718,9.16817 -34.64071,14.59189 -51.04556,15.6917 l -9.72144,0.65175 -1.20603,3.60155 c -0.66331,1.98085 -1.21905,7.20155 -1.23496,11.60155 -0.0243,6.7319 0.38987,8.80683 2.61324,13.09002 4.38921,8.45556 13.82266,15.03932 24.94692,17.41086 7.49067,1.59692 27.26616,0.37513 37.87405,-2.33997 z m -42.77951,-0.26504 c 2.54861,0.007 1.61587,0.18742 0,0 z M 313.6492,645.76186 c 8.77423,-4.836 15.89715,-11.72813 22.90244,-18.65834 7.79924,-9.79179 14.14542,-20.24498 19.15911,-33.25715 2.40018,-7.54862 2.36027,-3.9644 -0.0698,6.26747 -2.27535,9.58041 -5.02351,17.9455 -7.41478,22.5697 -1.22737,2.37348 -1.31719,3.15987 -0.35988,3.15096 2.40624,-0.0224 11.28755,-2.67862 16.15453,-4.83152 16.39624,-8.12655 22.00325,-17.61636 30.92852,-36.15661 5.30647,-15.57094 5.19509,-35.44421 -0.29149,-52.01308 -2.85025,-8.60745 -8.59654,-19.39246 -11.9487,-22.42613 -1.73875,-1.57354 -1.8607,-1.42337 -2.54389,3.13244 -1.04228,6.95043 -6.8468,24.07945 -10.47543,30.91279 -2.36395,4.45171 -3.00377,5.15987 -2.6147,2.89398 0.28332,-1.65 1.24736,-7.275 2.14233,-12.5 2.67669,-15.62721 0.86251,-38.61759 -4.25841,-53.96507 -5.64131,-16.83429 -16.51954,-30.87005 -27.99054,-44.14097 -9.99779,-11.20473 -17.16931,-23.59691 -21.64038,-37.39396 -3.72581,-11.49731 -4.7635,-18.74613 -4.75527,-33.21836 0.007,-12.385 0.49647,-16.01891 5.02122,-37.28164 3.43166,-16.12609 2.5045,-32.28073 -2.4105,-42 -4.28365,-8.4709 -10.25713,-12.34494 -19.04156,-12.34923 -22.16151,-0.0108 -49.35878,23.75769 -56.00152,48.94143 -2.01124,7.62495 -2.10474,23.57107 -0.16991,28.97905 1.73803,4.85791 6.24746,13.94195 8.65185,17.42875 2.42543,3.51731 9.55357,17.71955 11.2928,22.5 4.00664,11.01266 4.57668,26.13679 1.2823,34.02137 -2.49926,5.98157 -10.6348,6.66346 -41.05552,3.44111 -13.72445,-1.45378 -39.54055,-0.68633 -49.26811,1.46463 -24.65719,5.4522 -43.01709,17.26962 -50.52976,32.5237 -5.8866,11.95241 -4.75515,28.57984 2.60106,38.22448 6.87791,9.01755 19.58706,15.93106 35.69681,19.41831 9.23128,1.99828 31.46306,2.26047 42,0.49532 16.64699,-2.78871 35.71272,-12.08162 43.99349,-19.20635 2.76135,-3.42326 2.31848,-2.75562 4.27252,-5.42288 10.51317,-22.63892 0.45985,-40.785 -21.26601,-51.32892 -7.22815,-2.22655 -18.36147,-4.06826 -25.69155,-4.24997 l -4.80845,-0.1192 6.5,-1.35727 c 19.37258,-4.04518 43.87532,1.83941 55.3221,13.28619 21.46229,25.60281 10.26986,35.2925 2.6779,58.23038 6.37768,29.96147 25.88174,47.93228 51,62.48342 l 3.5,1.5174 -4.5685,0.0391 c -5.8221,0.0499 -13.59721,-2.24411 -22.23651,-6.56074 -5.75893,-2.11553 -7.43863,-3.64787 -11.59641,-7.20066 l -3.84207,-3.08757 -0.60903,4.44337 c -0.33497,2.44385 -0.8843,5.54012 -1.22074,6.8806 -0.5522,2.20015 -0.18927,2.54471 3.73078,3.54193 20.07124,6.1737 28.61284,12.13298 33.83037,28.52221 1.85396,5.14032 2.1085,7.60134 1.77655,17.17637 -0.3622,10.44787 -0.62363,11.65373 -4.01076,18.5 -1.99282,4.028 -5.27448,9.2499 -7.29258,11.60422 l -3.66927,4.2806 6.69241,-2.51902 c 3.68083,-1.38546 9.31617,-3.91746 12.52299,-5.62668 l -5e-5,4e-5 z M 308.72093,343.4297 c 0,0 0,0 0,0 z M 197.73602,604.35031 c 13.43565,-2.57596 27.91188,-9.25435 39.25319,-17.33509 9.1536,-10.15502 14.73935,-16.95035 16.39769,-30.16885 0.35776,-7.11104 0.0446,-9.56215 -1.91628,-15 -1.88916,-4.26968 -3.66024,-7.45717 -6.1101,-9.92859 -4.55505,-4.44044 -9.58583,-4.33974 -15.395,-2.09124 -13.53518,5.06414 -33.00413,8.01983 -52.82625,8.01983 -11.90448,0 -22.03931,-1.57396 -31.83437,-4.94396 l -5.53206,-1.90331 -4.38532,4.68826 c -10.52998,11.25741 -14.72616,24.86045 -11.70671,37.95042 4.0165,17.41239 18.74207,29.15279 40.43099,32.23483 7.97133,1.13274 24.39745,0.38907 33.62422,-1.5223 z m 24.98491,-28.92061 c 0,0 0,0 0,0 z m 2.00008,-16 c 6e-5,10e-6 3e-5,-3e-5 0,0 z"
         id="path3118"
         inkscape:connector-curvature="0"
         sodipodi:nodetypes="cssssssssssssssssssssssssssssssssccccccccccsssccccccsssccssssssccsssssssssssssssscccccccccccccccsccsscccccccccccccscccssccccc" />
      <path
         style="fill:#5e5e5e"
         d="m 205.18926,681.78966 c -27.15668,-4.20628 -43.00999,-22.45205 -41.22232,-47.44329 0.31474,-4.4 0.85047,-8.92683 1.19051,-10.05962 0.55923,-1.86296 -0.0908,-2.2135 -6.80795,-3.67117 -17.99984,-3.90611 -31.05333,-14.20797 -38.98767,-30.76921 -5.31411,-11.09206 -6.72423,-17.04104 -6.70794,-28.29922 0.019,-13.11345 3.90983,-24.40591 11.09487,-32.20076 l 3.96767,-4.3044 -7.83704,-7.84781 c -9.08762,-9.10012 -12.41341,-15.89872 -14.15353,-28.9328 -3.16733,-23.72424 8.43556,-43.57997 32.93017,-56.35256 20.30343,-10.58713 44.38722,-14.63323 71.98599,-12.09374 32.61162,3.00075 34.45205,2.80774 35.22299,-3.69378 0.96577,-8.14456 -1.74556,-17.60536 -10.03382,-35.01152 -8.69004,-18.24996 -9.78863,-21.19799 -10.76294,-28.88195 -0.73295,-5.78051 0.9178,-20.20283 3.231,-28.22859 6.00177,-20.82344 21.04618,-38.87686 40.53048,-48.6369 26.58915,-13.31899 46.00821,-7.85556 53.96355,15.18231 2.0583,5.96063 2.34874,8.65658 2.34874,21.80172 0,11.33333 -0.48889,17.2 -2,24 -3.02059,13.59264 -2.6333,34.53082 0.88741,47.97652 2.96958,11.34093 10.70382,27.78025 16.32003,34.68863 2.08591,2.56583 6.29602,7.74083 9.3558,11.5 14.27457,17.53736 24.82271,34.544 27.9961,45.13779 0.93869,3.13364 3.37407,6.39455 8.96209,12 12.18328,12.22127 18.67672,27.05179 21.10274,48.19706 1.52194,13.26533 0.41212,27.7849 -3.19231,41.76427 -4.28126,16.60439 -9.19469,25.43137 -20.43186,36.70585 -12.06472,12.10477 -24.57215,19.20034 -38.51552,21.85017 -4.94885,0.94049 -5.99431,1.60079 -9.52185,6.01388 -8.66987,10.84632 -22.18651,19.6426 -35.46263,23.07816 -3.575,0.92513 -10.775,1.92889 -16,2.23058 -7.81013,0.45095 -10.96602,1.16431 -17.74161,4.01032 -9.49116,3.98666 -22.51974,7.8836 -29.75839,8.90096 -2.75,0.3865 -5.71802,0.8307 -6.59561,0.98712 -5.31477,0.94727 -20.30266,1.18486 -25.35715,0.40198 z m 34.27065,-14.87673 c 21.28234,-5.2931 40.47128,-18.72415 47.59974,-33.3168 9.44028,-19.32519 3.07725,-38.82512 -15.91183,-48.76284 l -5.9942,-3.137 -1.49705,2.32504 c -2.92621,4.54464 -11.60294,13.1295 -17.51455,17.32912 -16.25111,11.54481 -45.96755,21.48164 -64.27475,21.49273 -6.22284,0.004 -6.58323,0.55054 -7.69549,11.67513 -1.66055,16.60848 7.39458,28.72805 25.36271,33.946 6.7871,1.97097 29.27651,1.0971 39.92542,-1.55138 z m 66.7388,-17.29179 c 20.19927,-8.26276 39.45359,-28.94337 48.09954,-51.66258 1.80258,-4.73671 3.29235,-8.30261 3.3106,-7.92424 0.16473,3.4161 -6.89049,27.64079 -9.62903,33.06205 -1.2768,2.52757 -1.23384,2.75 0.53118,2.75 3.72878,0 14.70507,-3.97101 20.63102,-7.46391 7.34149,-4.32725 17.33228,-14.83668 21.30343,-22.40932 13.12926,-25.03641 11.05207,-59.40769 -4.97067,-82.24969 l -4.24714,-6.0547 -1.78134,8.28047 c -0.97973,4.55426 -2.67769,10.87057 -3.77324,14.03624 -2.2788,6.5848 -8.17902,20.04627 -8.60127,19.62401 -0.15522,-0.15521 0.36541,-3.20291 1.15693,-6.77265 2.11476,-9.53747 2.89362,-30.89249 1.50524,-41.27124 -3.02322,-22.59985 -12.49092,-42.9192 -27.5929,-59.21921 -21.9721,-23.71514 -31.501,-46.46755 -31.49767,-75.20784 10e-4,-11.53924 0.87035,-18.08191 4.95325,-37.29216 2.19971,-10.34977 2.68168,-26.52953 1.00659,-33.79141 -4.8811,-21.16062 -19.75739,-27.20402 -41.33219,-16.79094 -17.23665,8.31927 -32.54044,26.50345 -37.09968,44.08235 -4.09693,15.79638 -2.82062,25.76182 5.18335,40.47157 10.19438,18.73531 14.92521,28.80692 16.21869,34.52843 1.6588,7.33749 1.57548,21.81973 -0.15541,27.0101 -2.24537,6.73319 -9.40065,7.73396 -34.89716,4.88092 -17.52554,-1.9611 -46.72175,-1.40332 -56.87881,1.08664 -27.13246,6.65141 -44.5849,18.99003 -51.33427,36.29258 -2.2331,5.72473 -2.21814,19.28964 0.0289,26.24734 6.41182,19.85305 38.31594,32.56899 73.16018,29.15927 25.121,-2.77626 61.33155,-11.84122 63.14515,-42.31748 0,-10.86572 -6.73543,-23.84347 -15.36943,-29.61365 -6.92327,-4.62689 -19.11034,-8.06885 -31.63057,-8.93333 l -10.5,-0.72499 8,-1.34271 c 19.65942,-3.29961 41.14909,1.93828 53.08281,12.93841 6.06864,5.59387 9.95431,12.86325 11.87413,22.21434 2.32386,11.31904 0.7227,19.97243 -5.48572,29.64742 -3.40046,5.29915 -3.62082,7.8913 -1.34324,15.80123 5.54429,19.25509 22.01139,38.1647 44.29231,50.86202 6.6251,3.77548 7.16843,4.29189 4.51559,4.29189 -8.23862,0 -24.12966,-6.26349 -33.12849,-13.05767 -2.87187,-2.16828 -5.35338,-3.94011 -5.51448,-3.93739 -0.1611,0.003 -0.40802,2.00529 -0.54872,4.45017 -0.14069,2.44488 -0.69005,5.58739 -1.22079,6.98334 -0.86595,2.27764 -0.68577,2.59984 1.75581,3.13964 10.12275,2.23801 18.94405,6.46849 25.18133,12.07634 9.69054,8.71263 13.58062,19.14008 12.78881,34.28071 -0.6132,11.72548 -3.11142,18.79494 -9.73357,27.54401 -5.40879,7.146 -5.35906,7.16345 6.54091,2.29562 l 4e-5,0 z M 193.26103,605.3203 c 36.0577,-6.19601 60.76462,-27.11369 60.76462,-50.4839 0,-11.49568 -5.41777,-23.16148 -12.0144,-27.48376 -2.45369,-1.60771 -2.82919,-1.56822 -8.509,0.89505 -24.0884,10.44684 -66.90377,12.65351 -88.23669,4.54763 -4.75901,-1.80828 -5.11643,-1.8173 -7.01997,-0.17712 -13.92874,12.00161 -18.96368,30.89648 -12.65069,47.47483 7.80106,20.48609 35.39307,30.77294 67.66613,25.22727 z"
         id="path3116"
         inkscape:connector-curvature="0"
         sodipodi:nodetypes="cssssscccssssssssssssssssssssssssssccscccssssccsssssscccsssssssssssssssssccscccsssssssssssssscccssssssc" />
      <path
         style="fill:#2e2e2e"
         d="m 208.64202,682.08641 c -28.25897,-3.06871 -46.65804,-22.51841 -44.64116,-47.19028 0.33945,-4.15237 0.88962,-8.73274 1.22259,-10.1786 0.58976,-2.56094 0.40919,-2.67249 -6.9916,-4.319 -11.33914,-2.52272 -20.94805,-7.71524 -28.33712,-15.31299 -20.3183,-20.89213 -22.98184,-57.03691 -5.61929,-76.25517 l 3.56333,-3.94419 -7.07183,-6.8509 c -10.89164,-10.55139 -15.12492,-21.24871 -15.12492,-38.22006 0,-21.81529 14.13258,-39.94264 39.71573,-50.94193 22.88498,-9.83924 44.97805,-11.69395 83.76264,-7.03186 14.48959,1.74172 18.3622,-0.95549 17.01411,-11.85002 -1.05202,-8.50189 -3.23114,-14.67427 -10.46601,-29.64504 -10.78942,-22.32606 -11.92386,-27.46597 -9.62528,-43.61007 2.63609,-18.51457 8.91481,-31.86514 20.98091,-44.61215 22.54651,-23.81882 54.48831,-30.71771 68.47376,-14.78917 9.9088,11.28551 12.51469,31.6401 7.52381,58.7684 -4.13789,22.49179 -2.60081,41.95871 4.79619,60.74299 3.06892,7.79338 10.19406,19.9959 14.67359,25.13002 6.22475,7.13436 20.52292,25.9171 24.64131,32.36998 4.13008,6.47118 9.77761,18.29273 10.8762,22.7663 0.37363,1.52147 3.72769,5.79647 7.45347,9.5 16.07369,15.97773 22.54212,33.72081 22.50569,61.7337 -0.036,27.70949 -7.52331,49.23513 -22.72749,65.34074 -10.14088,10.74213 -25.72676,19.56131 -39.18788,22.17424 -5.6201,1.09091 -6.4156,1.59096 -10.32496,6.49017 -7.4183,9.29662 -18.28857,17.15102 -29.09424,21.02227 -6.48215,2.3223 -19.45822,4.46963 -27.01904,4.47121 -3.84618,8.1e-4 -7.33775,0.55713 -8.5,1.35434 -7.00562,4.80524 -29.91365,11.02915 -45.97251,12.49032 -9.84359,0.89565 -11.53192,0.93625 -16.5,0.39675 z m 25.73125,-13.81956 c 32.60106,-6.73393 55.7496,-27.16427 57.04202,-50.34391 0.3382,-6.06566 -0.01,-8.72256 -1.74601,-13.32323 -2.82815,-7.49491 -10.17317,-15.48647 -18.13279,-19.7289 l -6.21079,-3.31032 -1.99248,2.89294 c -1.09587,1.59112 -5.25536,6.06851 -9.24332,9.94977 -5.72309,5.56996 -9.74731,8.3385 -19.09936,13.13979 -18.16009,9.3233 -33.18804,13.74494 -51.01217,15.00921 l -8.16364,0.57905 -1.21692,6.4494 c -3.52483,18.68093 4.13131,31.8909 22.01732,37.98885 8.17746,2.78797 26.03967,3.11787 37.75814,0.69735 z m 69.35178,-17.45472 c 14.75357,-6.08388 25.58107,-14.02078 34.8567,-25.55106 7.10932,-8.83739 10.15427,-13.86273 14.67869,-24.22546 1.84644,-4.22908 3.36266,-7.20478 3.36937,-6.61267 0.0248,2.18533 -5.92878,22.07975 -8.00711,26.75654 -1.18129,2.65821 -1.99769,4.9743 -1.81424,5.14686 0.18346,0.17257 3.68708,-0.54262 7.78583,-1.5893 29.59083,-7.55653 48.26429,-39.07551 44.05194,-74.35539 -1.87628,-15.71456 -6.10777,-27.35162 -13.76598,-37.858 l -3.51533,-4.82271 -2.72792,10.82271 c -2.68447,10.65031 -7.4162,23.71569 -10.53383,29.08634 -0.87365,1.50501 -1.38767,2.04983 -1.14227,1.21071 2.54896,-8.71584 3.17114,-15.21195 3.1103,-32.47433 -0.0605,-17.16518 -0.31565,-19.91741 -2.6422,-28.5 -4.89008,-18.0394 -12.77794,-32.04086 -26.75956,-47.5 -15.57037,-17.21578 -22.99556,-31.04182 -28.19479,-52.5 -0.84571,-3.4904 -1.31711,-11.52879 -1.29016,-22 0.037,-14.36886 0.38063,-17.85618 2.66068,-27 4.29638,-17.23002 5.24026,-26.96528 3.66531,-37.80431 -3.84569,-26.46651 -20.20485,-33.9418 -44.86846,-20.50256 -18.28545,9.96378 -32.02409,28.2668 -35.65925,47.50632 -2.88534,15.27101 -0.52027,25.77195 9.52712,42.30055 10.60881,17.45218 14.13299,28.08772 14.13058,42.64434 -0.003,18.77607 -4.02357,20.84665 -33.49845,17.25214 -17.57758,-2.14362 -43.41796,-2.11968 -54.75616,0.0507 -23.35059,4.46986 -41.87228,14.47039 -51.00134,27.53748 -10.73818,15.37032 -9.96482,35.27672 1.84175,47.40747 14.75501,15.16015 43.13693,21.72786 73.87491,17.09501 14.0765,-2.12163 20.72509,-4.06948 31.1715,-9.1324 22.66653,-10.98548 30.30597,-28.56819 20.84485,-47.97591 -7.09001,-14.54381 -19.22042,-21.15545 -42.47551,-23.15112 l -9.5,-0.81526 8.85779,-1.32481 c 10.90493,-1.631 20.47293,-0.83203 30.64221,2.55874 15.13145,5.04533 22.72672,11.27447 28.32494,23.23024 2.58434,5.51922 3.16825,8.14681 3.50261,15.76174 0.4603,10.48333 -0.30196,13.45846 -5.77186,22.52767 -3.57623,5.92947 -3.81002,6.76609 -3.03996,10.87871 4.11877,21.99715 21.22821,43.04059 46.98427,57.78742 6.12617,3.50759 4.95036,3.95603 -4.5,1.71624 -8.13442,-1.92791 -15.71777,-5.41478 -23.77915,-10.93382 -3.70716,-2.53802 -6.90519,-4.61458 -7.10674,-4.61458 -0.20155,0 -0.60968,2.3625 -0.90696,5.25 -0.29728,2.8875 -0.83874,6.19846 -1.20324,7.35768 -0.57897,1.84127 -0.17871,2.17553 3.16668,2.64451 10.89853,1.52784 25.11617,10.19023 30.40413,18.52434 10.82471,17.06031 8.3952,42.3337 -5.52486,57.47347 -4.1764,4.54234 -3.04655,4.66612 6.53317,0.71576 z M 203.14202,603.49044 c 38.83928,-10.26446 58.62576,-35.96902 48.45913,-62.95315 -2.0759,-5.50983 -6.00562,-11.02005 -9.48505,-13.29986 -2.23719,-1.46587 -2.91599,-1.36601 -10.4409,1.5359 -9.25269,3.56822 -18.15037,5.62531 -33.03318,7.63709 -19.83413,2.68108 -37.9336,1.44753 -52.55085,-3.58154 -4.52778,-1.55779 -6.08946,-1.72732 -7.34933,-0.79782 -3.97542,2.93297 -8.4833,8.90871 -11.894,15.76695 -3.54189,7.12201 -3.70483,7.89614 -3.68355,17.5 0.0196,8.85661 0.35424,10.77237 2.8213,16.15294 5.20029,11.34162 16.40796,19.84407 31.0462,23.55248 10.84396,2.74719 32.70447,2.02989 46.11023,-1.51299 z"
         id="path3114"
         inkscape:connector-curvature="0" />
      <path
         style="fill:#020202"
         d="m 201.14202,680.81569 c -19.19798,-4.64999 -31.66005,-15.96312 -35.92585,-32.61366 -2.21388,-8.64139 -1.99183,-15.28536 0.80172,-23.98869 0.59708,-1.8602 0.20113,-2.21812 -3.09561,-2.79828 -9.33421,-1.64263 -19.42341,-5.85626 -26.638,-11.12501 -25.3768,-18.53247 -31.32875,-60.03015 -11.69131,-81.5132 l 3.89858,-4.26498 -4.50649,-3.44096 c -6.26026,-4.78006 -12.74588,-13.96769 -15.51106,-21.97318 -1.94946,-5.64393 -2.94786,-8.58162 -2.91931,-18.61325 0.0333,-11.68972 3.44289,-17.24084 3.7459,-18.07524 11.11091,-30.59619 55.41815,-47.06507 104.34143,-41.85538 7.425,0.79066 17.02688,1.51743 21.33752,1.61504 7.25728,0.16433 7.98804,-0.008 9.87073,-2.32253 1.76606,-2.17151 1.956,-3.41977 1.44555,-9.5 -0.74606,-8.88662 -2.88548,-15.04037 -10.42986,-30 -3.32848,-6.6 -6.99052,-14.79831 -8.13786,-18.21846 -4.56033,-13.59404 -1.54975,-36.69138 6.95553,-53.3631 5.65957,-8.80884 12.48153,-16.83404 20.39489,-24.18358 6.80334,-5.61171 18.49307,-11.90848 25.70953,-13.84864 6.39445,-1.71916 17.98862,-2.19632 22.67893,-0.93335 17.65414,4.75376 26.45051,32.305 19.90411,62.34192 -1.52983,7.01936 -2.03268,13.24199 -2.11765,26.20521 -0.097,14.79939 0.19051,18.16503 2.22102,26 3.33455,12.86679 11.71864,29.20443 20.19204,39.34723 13.18252,17.06436 27.14944,33.46388 34.19836,54.12781 0.17409,1.55467 2.02983,3.87664 4.99036,6.24417 4.28705,3.42833 6.63713,7.30371 9.61034,10.92927 1.94634,2.37338 4.24507,6.58405 5.55115,8.65301 4.28494,6.78778 7.41161,17.44494 9.2157,31.41136 1.64916,12.76701 1.65274,14.24158 0.0635,26.15921 -2.72255,24.58446 -12.96751,45.84598 -32.19593,61.16467 -8.26703,5.94103 -19.32154,11.07403 -28.01408,13.00794 -7.00005,1.55736 -7.42921,1.82662 -12.00561,7.53235 -13.36246,16.26011 -31.70656,22.73251 -51.93823,24.27122 -6.61431,0.23457 -10.06031,0.86087 -13,2.3627 -6.21392,3.17457 -18.15654,7.26286 -27.5,9.41402 -9.77666,2.25089 -35.16347,3.37914 -41.5,1.84436 l -4e-5,0 z m 25,-11.02748 c 4.95,-0.57889 13.40906,-2.39742 18.79791,-4.04118 9.23667,-2.81745 12.71792,-4.36263 20.43385,-9.06971 8.58033,-5.49886 12.40006,-9.38622 17.46062,-15.88531 5.61881,-6.86452 8.00772,-13.19674 8.57129,-22.71971 0.37669,-6.36515 0.0839,-9.3644 -1.26896,-13 -2.32013,-6.2349 -8.50658,-14.45211 -12.94623,-17.19597 -4.53369,-3.63415 -5.69668,-3.53288 -7.91013,-4.5366 -1.96576,-0.82135 -3.74136,-1.49336 -3.94577,-1.49336 -0.20441,0 -2.46945,2.70137 -5.03343,6.00303 -4.54856,5.85724 -12.7265,12.60615 -21.52487,17.76356 -19.17028,10.82934 -39.92707,15.52147 -61.74764,17.19492 -1.7228,0.0596 -3.67723,11.17634 -3.20245,18.21546 0.51505,7.63617 2.62757,13.11816 8.00644,18.49703 3.65509,3.44402 5.20237,4.42519 9.50019,6.40299 4.848,2.3986 15.13517,4.73548 21.30918,4.84069 2.475,0.0422 8.55,-0.39695 13.5,-0.97584 z m 85.21364,-22.12163 c 3.6272,-1.78566 9.13237,-4.88722 12.14933,-7.22994 4.69427,-3.34727 6.94254,-5.09086 10.55206,-9.10871 6.53794,-6.30666 14.9639,-19.53585 19.17286,-29.48156 1.28017,-3.025 2.34659,-4.84822 2.36984,-4.0516 0.0642,2.2006 -4.80588,17.65121 -7.44406,23.6166 l -2.33519,5.2803 3.66076,-0.57593 c 2.01342,-0.31676 6.20481,-1.23943 9.22981,-2.30357 6.96327,-2.1632 12.13468,-5.63925 17.41769,-9.87194 5.36947,-4.17251 7.67055,-6.47437 11.03317,-12.0117 4.22735,-6.07446 7.97782,-14.58667 10.61056,-24.08216 1.89841,-6.84696 1.62642,-29.02017 -0.46443,-37.862 -2.92596,-10.3528 -7.12947,-24.85842 -15.50691,-32.138 -0.46248,0 -1.39324,2.5875 -2.06836,5.75 -1.86629,8.74233 -5.87611,20.8389 -9.16328,27.64317 -1.62263,3.35876 -2.72484,5.29483 -2.44936,4.30239 3.06427,-11.03917 3.63865,-36.38155 1.12823,-49.77881 -4.06917,-21.71576 -12.10042,-37.49651 -27.94862,-54.91675 -12.22618,-13.21786 -20.52163,-28.53574 -26.61427,-45.5 -5.15583,-19.64033 -5.00835,-36.94221 0.51657,-60.6009 2.76311,-11.83218 3.72319,-27.76884 2.21133,-36.70658 -0.9128,-5.39618 -4.04021,-12.54514 -7.43529,-16.99631 -10.58283,-10.99574 -27.74947,-7.96917 -39.08861,0.11905 -10.32224,6.09926 -22.81087,19.33488 -28.03572,29.71263 -7.50692,14.91042 -9.25927,32.92791 -4.30975,44.31245 4.10071,13.01099 13.02777,23.76762 18.38837,36.15966 2.52822,6.67804 3.08245,9.73724 3.35395,18.51318 0.36831,11.90539 -0.74034,17.34841 -3.96379,19.46049 -3.28881,2.15491 -12.07152,2.80681 -21.68053,1.60923 -20.52031,-2.55745 -36.80474,-3.21543 -49.73924,-2.00974 -12.14984,0.15755 -23.13233,2.47201 -34.20235,7.40324 -9.0816,3.66175 -19.09765,9.90534 -23.99348,14.95655 -3.56295,2.9052 -6.93205,8.01539 -8.49871,11.81261 -4.65509,9.32649 -5.71281,18.58369 -3.20163,28.02058 4.16638,15.65704 21.55146,27.9171 44.97907,31.7195 8.11252,1.3167 27.55576,1.28634 37.22201,-0.0581 18.00174,-2.50381 36.53827,-10.10213 45.61892,-18.69969 8.65731,-8.19674 12.50445,-19.96456 9.79271,-29.95447 -5.60205,-20.63771 -19.28459,-30.303 -45.4773,-32.12494 l -10,-0.6956 9.52501,-1.27042 c 21.22892,-2.83145 43.163,4.43967 53.18715,17.63148 11.07915,14.5802 11.79316,33.0161 1.84931,47.75009 l -3.19568,4.7351 1.64352,7.38731 c 1.92617,8.65776 7.87923,21.07606 12.93141,26.97539 3.47907,4.82383 5.95294,7.9007 10.39574,11.44862 6.63096,6.09923 17.63305,14.03515 24.00647,17.31612 1.83861,0.94649 3.17081,1.89303 2.96043,2.1034 -0.21037,0.21037 -3.32429,-0.23301 -6.91982,-0.98529 -8.37808,-1.75292 -18.39897,-6.30976 -26.34512,-11.98001 l -6.26892,-4.47341 -0.58801,5.70437 c -0.32341,3.1374 -0.88653,6.71687 -1.25138,7.95437 -0.5216,1.76915 -0.2627,2.25 1.21148,2.25 1.03117,0 5.55438,1.30117 10.05158,2.8915 11.23044,3.50167 18.42257,10.68326 24.41586,20.0768 8.14024,15.9895 5.09514,38.42969 -7.09394,52.27722 -2.2083,2.50876 -4.01509,4.80559 -4.01509,5.10407 0,0.8809 10.59182,-3.02332 17.71364,-6.52938 l 0,4e-5 z M 202.25533,603.95161 c 27.48497,-7.03959 47.19212,-22.74637 51.40126,-40.96727 1.63442,-7.07523 0.56595,-17.1568 -2.53912,-23.9579 -2.22524,-6.48357 -8.31635,-13.87411 -12.77585,-13.58807 -2.50544,2.07932 -20.33023,7.53516 -31.32268,9.31843 -24.65271,3.99933 -41.35628,3.59415 -58.63902,-1.42243 l -8.76209,-2.54333 -2.13935,1.9931 c -3.00754,2.54347 -4.66975,4.13694 -6.67032,7.34561 -6.3911,9.92427 -8.26501,13.18049 -8.27685,25.28571 -0.01,9.95992 0.86803,11.45489 3.33214,16.47224 4.98076,10.14162 14.05047,17.74535 26.30359,22.05197 11.41266,4.01123 34.45235,4.01674 50.08829,0.012 l 0,-6e-5 z"
         id="path3112"
         inkscape:connector-curvature="0"
         sodipodi:nodetypes="csssscccsssssssssccsssssccssssccsccsscccsccssccssccsccsccccssccccccsccssssccssccsccsssccccssssscccscccccssscccssccsscccsccsccccssscc" />
    </g>
  </g>
</svg>
